<mxfile host="Electron" agent="Mozilla/5.0 (Windows NT 10.0; Win64; x64) AppleWebKit/537.36 (KHTML, like Gecko) draw.io/28.1.2 Chrome/138.0.7204.243 Electron/37.4.0 Safari/537.36" version="28.1.2">
  <diagram name="Page-1" id="AgN1TriB1giXMgzyrv2g">
    <mxGraphModel dx="2377" dy="1402" grid="1" gridSize="10" guides="1" tooltips="1" connect="1" arrows="1" fold="1" page="1" pageScale="1" pageWidth="850" pageHeight="1100" math="0" shadow="0">
      <root>
        <mxCell id="0" />
        <mxCell id="1" parent="0" />
        <mxCell id="vtns92eZaQUpisnjDbsl-1" value="Penumpang" style="rounded=0;whiteSpace=wrap;html=1;fillColor=light-dark(#D80073,#FF9ACF);strokeColor=#FF66B3;fontColor=#ffffff;" vertex="1" parent="1">
          <mxGeometry x="120" y="170" width="100" height="30" as="geometry" />
        </mxCell>
        <mxCell id="vtns92eZaQUpisnjDbsl-6" value="Pembayaran" style="rounded=0;whiteSpace=wrap;html=1;fillColor=light-dark(#D80073,#FF9ACF);strokeColor=#FF66B3;fontColor=#ffffff;" vertex="1" parent="1">
          <mxGeometry x="330" y="310" width="100" height="30" as="geometry" />
        </mxCell>
        <mxCell id="vtns92eZaQUpisnjDbsl-7" value="Jadwal" style="rounded=0;whiteSpace=wrap;html=1;fillColor=light-dark(#D80073,#FF9ACF);strokeColor=#FF66B3;fontColor=#ffffff;" vertex="1" parent="1">
          <mxGeometry x="545" y="450" width="100" height="30" as="geometry" />
        </mxCell>
        <mxCell id="vtns92eZaQUpisnjDbsl-8" value="Tiket" style="rounded=0;whiteSpace=wrap;html=1;fillColor=light-dark(#D80073,#FF9ACF);strokeColor=#FF66B3;fontColor=#ffffff;" vertex="1" parent="1">
          <mxGeometry x="120" y="450" width="100" height="30" as="geometry" />
        </mxCell>
        <mxCell id="vtns92eZaQUpisnjDbsl-9" value="Kereta" style="rounded=0;whiteSpace=wrap;html=1;fillColor=light-dark(#D80073,#FF9ACF);strokeColor=#FF66B3;fontColor=#ffffff;" vertex="1" parent="1">
          <mxGeometry x="545" y="170" width="100" height="30" as="geometry" />
        </mxCell>
        <mxCell id="vtns92eZaQUpisnjDbsl-10" value="Menggunakan" style="rhombus;whiteSpace=wrap;html=1;fillColor=#A680B8;strokeColor=#FF99FF;" vertex="1" parent="1">
          <mxGeometry x="330" y="170" width="105" height="30" as="geometry" />
        </mxCell>
        <mxCell id="vtns92eZaQUpisnjDbsl-15" value="" style="endArrow=none;html=1;rounded=0;entryX=0;entryY=0.5;entryDx=0;entryDy=0;exitX=1;exitY=0.5;exitDx=0;exitDy=0;" edge="1" parent="1" source="vtns92eZaQUpisnjDbsl-1" target="vtns92eZaQUpisnjDbsl-10">
          <mxGeometry width="50" height="50" relative="1" as="geometry">
            <mxPoint x="430" y="390" as="sourcePoint" />
            <mxPoint x="480" y="340" as="targetPoint" />
            <Array as="points" />
          </mxGeometry>
        </mxCell>
        <mxCell id="vtns92eZaQUpisnjDbsl-16" value="Membeli" style="rhombus;whiteSpace=wrap;html=1;fillColor=#A680B8;strokeColor=#FF99FF;" vertex="1" parent="1">
          <mxGeometry x="115" y="310" width="105" height="30" as="geometry" />
        </mxCell>
        <mxCell id="vtns92eZaQUpisnjDbsl-17" value="Perlu" style="rhombus;whiteSpace=wrap;html=1;fillColor=#A680B8;strokeColor=#FF99FF;" vertex="1" parent="1">
          <mxGeometry x="330" y="450" width="105" height="30" as="geometry" />
        </mxCell>
        <mxCell id="vtns92eZaQUpisnjDbsl-18" value="Memiliki" style="rhombus;whiteSpace=wrap;html=1;fillColor=#A680B8;strokeColor=#FF99FF;" vertex="1" parent="1">
          <mxGeometry x="545" y="310" width="105" height="30" as="geometry" />
        </mxCell>
        <mxCell id="vtns92eZaQUpisnjDbsl-19" value="" style="endArrow=none;html=1;rounded=0;entryX=0;entryY=0.5;entryDx=0;entryDy=0;exitX=1;exitY=0.5;exitDx=0;exitDy=0;" edge="1" parent="1">
          <mxGeometry width="50" height="50" relative="1" as="geometry">
            <mxPoint x="220" y="464.66" as="sourcePoint" />
            <mxPoint x="330" y="464.66" as="targetPoint" />
            <Array as="points">
              <mxPoint x="270" y="464.66" />
            </Array>
          </mxGeometry>
        </mxCell>
        <mxCell id="vtns92eZaQUpisnjDbsl-20" value="" style="endArrow=none;html=1;rounded=0;entryX=0.5;entryY=0;entryDx=0;entryDy=0;" edge="1" parent="1" target="vtns92eZaQUpisnjDbsl-18">
          <mxGeometry width="50" height="50" relative="1" as="geometry">
            <mxPoint x="598" y="200" as="sourcePoint" />
            <mxPoint x="598.5" y="300" as="targetPoint" />
            <Array as="points" />
          </mxGeometry>
        </mxCell>
        <mxCell id="vtns92eZaQUpisnjDbsl-21" value="" style="endArrow=none;html=1;rounded=0;entryX=0;entryY=0.5;entryDx=0;entryDy=0;exitX=1;exitY=0.5;exitDx=0;exitDy=0;" edge="1" parent="1">
          <mxGeometry width="50" height="50" relative="1" as="geometry">
            <mxPoint x="435" y="184.66" as="sourcePoint" />
            <mxPoint x="545" y="184.66" as="targetPoint" />
            <Array as="points" />
          </mxGeometry>
        </mxCell>
        <mxCell id="vtns92eZaQUpisnjDbsl-24" value="" style="endArrow=none;html=1;rounded=0;entryX=0.46;entryY=-0.057;entryDx=0;entryDy=0;entryPerimeter=0;" edge="1" parent="1" target="vtns92eZaQUpisnjDbsl-8">
          <mxGeometry width="50" height="50" relative="1" as="geometry">
            <mxPoint x="167.16000000000003" y="340" as="sourcePoint" />
            <mxPoint x="167.66000000000003" y="440" as="targetPoint" />
            <Array as="points" />
          </mxGeometry>
        </mxCell>
        <mxCell id="vtns92eZaQUpisnjDbsl-25" value="" style="endArrow=none;html=1;rounded=0;exitX=0.46;exitY=1.046;exitDx=0;exitDy=0;exitPerimeter=0;" edge="1" parent="1" source="vtns92eZaQUpisnjDbsl-1">
          <mxGeometry width="50" height="50" relative="1" as="geometry">
            <mxPoint x="170" y="190" as="sourcePoint" />
            <mxPoint x="166" y="310" as="targetPoint" />
            <Array as="points" />
          </mxGeometry>
        </mxCell>
        <mxCell id="vtns92eZaQUpisnjDbsl-26" value="" style="endArrow=none;html=1;rounded=0;entryX=0.5;entryY=0;entryDx=0;entryDy=0;exitX=0.5;exitY=1;exitDx=0;exitDy=0;" edge="1" parent="1" source="vtns92eZaQUpisnjDbsl-18">
          <mxGeometry width="50" height="50" relative="1" as="geometry">
            <mxPoint x="597.16" y="350" as="sourcePoint" />
            <mxPoint x="597.66" y="450" as="targetPoint" />
            <Array as="points" />
          </mxGeometry>
        </mxCell>
        <mxCell id="vtns92eZaQUpisnjDbsl-27" value="" style="endArrow=none;html=1;rounded=0;entryX=0.5;entryY=0;entryDx=0;entryDy=0;exitX=0.46;exitY=1.046;exitDx=0;exitDy=0;exitPerimeter=0;" edge="1" parent="1">
          <mxGeometry width="50" height="50" relative="1" as="geometry">
            <mxPoint x="381.66999999999996" y="340" as="sourcePoint" />
            <mxPoint x="383.33000000000004" y="449" as="targetPoint" />
            <Array as="points" />
          </mxGeometry>
        </mxCell>
        <mxCell id="vtns92eZaQUpisnjDbsl-29" value="" style="endArrow=none;html=1;rounded=0;entryX=0;entryY=0.5;entryDx=0;entryDy=0;exitX=1;exitY=0.5;exitDx=0;exitDy=0;" edge="1" parent="1" source="vtns92eZaQUpisnjDbsl-6" target="vtns92eZaQUpisnjDbsl-18">
          <mxGeometry width="50" height="50" relative="1" as="geometry">
            <mxPoint x="430" y="390" as="sourcePoint" />
            <mxPoint x="480" y="340" as="targetPoint" />
          </mxGeometry>
        </mxCell>
        <mxCell id="vtns92eZaQUpisnjDbsl-31" value="&lt;u&gt;&lt;font style=&quot;font-size: 8px;&quot;&gt;id_penumpang&lt;/font&gt;&lt;/u&gt;" style="ellipse;whiteSpace=wrap;html=1;fillColor=#FF5A8B;strokeColor=#9673a6;" vertex="1" parent="1">
          <mxGeometry x="130" y="80" width="60" height="30" as="geometry" />
        </mxCell>
        <mxCell id="vtns92eZaQUpisnjDbsl-33" value="&lt;font style=&quot;font-size: 10px;&quot;&gt;nama&lt;/font&gt;" style="ellipse;whiteSpace=wrap;html=1;fillColor=#FF5A8B;strokeColor=#9673a6;" vertex="1" parent="1">
          <mxGeometry x="170" y="110" width="60" height="30" as="geometry" />
        </mxCell>
        <mxCell id="vtns92eZaQUpisnjDbsl-34" value="no_hp" style="ellipse;whiteSpace=wrap;html=1;fillColor=#FF5A8B;strokeColor=#9673a6;" vertex="1" parent="1">
          <mxGeometry x="90" y="110" width="60" height="30" as="geometry" />
        </mxCell>
        <mxCell id="vtns92eZaQUpisnjDbsl-35" value="&lt;span style=&quot;font-size: 10px;&quot;&gt;nama_kereta&lt;/span&gt;" style="ellipse;whiteSpace=wrap;html=1;fillColor=#FF5A8B;strokeColor=#9673a6;" vertex="1" parent="1">
          <mxGeometry x="520" y="110" width="60" height="30" as="geometry" />
        </mxCell>
        <mxCell id="vtns92eZaQUpisnjDbsl-36" value="&lt;span style=&quot;font-size: 10px;&quot;&gt;jenis_kereta&lt;/span&gt;" style="ellipse;whiteSpace=wrap;html=1;fillColor=#FF5A8B;strokeColor=#9673a6;" vertex="1" parent="1">
          <mxGeometry x="620" y="110" width="60" height="30" as="geometry" />
        </mxCell>
        <mxCell id="vtns92eZaQUpisnjDbsl-37" value="&lt;span style=&quot;font-size: 10px;&quot;&gt;&lt;u&gt;id_kereta&lt;/u&gt;&lt;/span&gt;" style="ellipse;whiteSpace=wrap;html=1;fillColor=#FF5A8B;strokeColor=#9673a6;" vertex="1" parent="1">
          <mxGeometry x="567.5" y="80" width="60" height="30" as="geometry" />
        </mxCell>
        <mxCell id="vtns92eZaQUpisnjDbsl-38" value="&lt;span style=&quot;font-size: 10px;&quot;&gt;harga&lt;/span&gt;" style="ellipse;whiteSpace=wrap;html=1;fillColor=#FF5A8B;strokeColor=#9673a6;" vertex="1" parent="1">
          <mxGeometry x="210" y="400" width="60" height="30" as="geometry" />
        </mxCell>
        <mxCell id="vtns92eZaQUpisnjDbsl-39" value="&lt;span style=&quot;font-size: 10px;&quot;&gt;no_kursi&lt;/span&gt;" style="ellipse;whiteSpace=wrap;html=1;fillColor=#FF5A8B;strokeColor=#9673a6;" vertex="1" parent="1">
          <mxGeometry x="180" y="360" width="60" height="30" as="geometry" />
        </mxCell>
        <mxCell id="vtns92eZaQUpisnjDbsl-40" value="&lt;span style=&quot;font-size: 10px;&quot;&gt;id_jadwal&lt;/span&gt;" style="ellipse;whiteSpace=wrap;html=1;fillColor=#FF5A8B;strokeColor=#9673a6;" vertex="1" parent="1">
          <mxGeometry x="30" y="430" width="60" height="30" as="geometry" />
        </mxCell>
        <mxCell id="vtns92eZaQUpisnjDbsl-41" value="&lt;font style=&quot;font-size: 8px;&quot;&gt;id_penumpang&lt;/font&gt;" style="ellipse;whiteSpace=wrap;html=1;fillColor=#FF5A8B;strokeColor=#9673a6;" vertex="1" parent="1">
          <mxGeometry x="40" y="390" width="60" height="30" as="geometry" />
        </mxCell>
        <mxCell id="vtns92eZaQUpisnjDbsl-42" value="&lt;span style=&quot;font-size: 10px;&quot;&gt;&lt;u&gt;id_tiket&lt;/u&gt;&lt;/span&gt;" style="ellipse;whiteSpace=wrap;html=1;fillColor=#FF5A8B;strokeColor=#9673a6;" vertex="1" parent="1">
          <mxGeometry x="80" y="360" width="60" height="30" as="geometry" />
        </mxCell>
        <mxCell id="vtns92eZaQUpisnjDbsl-43" value="&lt;span style=&quot;font-size: 8px;&quot;&gt;tgl_pembayaran&lt;/span&gt;" style="ellipse;whiteSpace=wrap;html=1;fillColor=#FF5A8B;strokeColor=#9673a6;" vertex="1" parent="1">
          <mxGeometry x="670" y="427" width="60" height="30" as="geometry" />
        </mxCell>
        <mxCell id="vtns92eZaQUpisnjDbsl-44" value="&lt;span style=&quot;font-size: 8px;&quot;&gt;status_pem&lt;/span&gt;" style="ellipse;whiteSpace=wrap;html=1;fillColor=#FF5A8B;strokeColor=#9673a6;" vertex="1" parent="1">
          <mxGeometry x="650" y="390" width="60" height="30" as="geometry" />
        </mxCell>
        <mxCell id="vtns92eZaQUpisnjDbsl-45" value="&lt;span style=&quot;font-size: 8px;&quot;&gt;metode_pem&lt;/span&gt;" style="ellipse;whiteSpace=wrap;html=1;fillColor=#FF5A8B;strokeColor=#9673a6;" vertex="1" parent="1">
          <mxGeometry x="610" y="360" width="60" height="30" as="geometry" />
        </mxCell>
        <mxCell id="vtns92eZaQUpisnjDbsl-46" value="&lt;font size=&quot;1&quot;&gt;id_kereta&lt;/font&gt;" style="ellipse;whiteSpace=wrap;html=1;fillColor=#FF5A8B;strokeColor=#9673a6;" vertex="1" parent="1">
          <mxGeometry x="485" y="390" width="60" height="30" as="geometry" />
        </mxCell>
        <mxCell id="vtns92eZaQUpisnjDbsl-47" value="&lt;font style=&quot;font-size: 9px;&quot;&gt;&lt;u style=&quot;&quot;&gt;id_jadwal&lt;/u&gt;&lt;/font&gt;" style="ellipse;whiteSpace=wrap;html=1;fillColor=#FF5A8B;strokeColor=#9673a6;" vertex="1" parent="1">
          <mxGeometry x="520" y="360" width="60" height="30" as="geometry" />
        </mxCell>
        <mxCell id="vtns92eZaQUpisnjDbsl-48" value="&lt;span style=&quot;font-size: 8px;&quot;&gt;tgl_pembayaran&lt;/span&gt;" style="ellipse;whiteSpace=wrap;html=1;fillColor=#FF5A8B;strokeColor=#9673a6;" vertex="1" parent="1">
          <mxGeometry x="260" y="260" width="60" height="30" as="geometry" />
        </mxCell>
        <mxCell id="vtns92eZaQUpisnjDbsl-49" value="&lt;span style=&quot;font-size: 8px;&quot;&gt;status_pem&lt;/span&gt;" style="ellipse;whiteSpace=wrap;html=1;fillColor=#FF5A8B;strokeColor=#9673a6;" vertex="1" parent="1">
          <mxGeometry x="450" y="260" width="60" height="30" as="geometry" />
        </mxCell>
        <mxCell id="vtns92eZaQUpisnjDbsl-50" value="&lt;span style=&quot;font-size: 8px;&quot;&gt;metode_pem&lt;/span&gt;" style="ellipse;whiteSpace=wrap;html=1;fillColor=#FF5A8B;strokeColor=#9673a6;" vertex="1" parent="1">
          <mxGeometry x="390" y="230" width="60" height="30" as="geometry" />
        </mxCell>
        <mxCell id="vtns92eZaQUpisnjDbsl-51" value="&lt;font style=&quot;font-size: 8px;&quot;&gt;&lt;u&gt;id_pembayaran&lt;/u&gt;&lt;/font&gt;" style="ellipse;whiteSpace=wrap;html=1;fillColor=#FF5A8B;strokeColor=#9673a6;" vertex="1" parent="1">
          <mxGeometry x="352.5" y="260" width="60" height="30" as="geometry" />
        </mxCell>
        <mxCell id="vtns92eZaQUpisnjDbsl-52" value="&lt;font style=&quot;font-size: 10px;&quot;&gt;id_teket&lt;/font&gt;" style="ellipse;whiteSpace=wrap;html=1;fillColor=#FF5A8B;strokeColor=#9673a6;" vertex="1" parent="1">
          <mxGeometry x="320" y="230" width="60" height="30" as="geometry" />
        </mxCell>
        <mxCell id="vtns92eZaQUpisnjDbsl-53" style="edgeStyle=orthogonalEdgeStyle;rounded=0;orthogonalLoop=1;jettySize=auto;html=1;exitX=0.5;exitY=1;exitDx=0;exitDy=0;" edge="1" parent="1" source="vtns92eZaQUpisnjDbsl-48" target="vtns92eZaQUpisnjDbsl-48">
          <mxGeometry relative="1" as="geometry" />
        </mxCell>
        <mxCell id="vtns92eZaQUpisnjDbsl-54" value="" style="endArrow=none;html=1;rounded=0;entryX=0.5;entryY=1;entryDx=0;entryDy=0;exitX=0.411;exitY=-0.011;exitDx=0;exitDy=0;exitPerimeter=0;" edge="1" parent="1" source="vtns92eZaQUpisnjDbsl-1" target="vtns92eZaQUpisnjDbsl-31">
          <mxGeometry width="50" height="50" relative="1" as="geometry">
            <mxPoint x="90" y="200" as="sourcePoint" />
            <mxPoint x="140" y="150" as="targetPoint" />
          </mxGeometry>
        </mxCell>
        <mxCell id="vtns92eZaQUpisnjDbsl-55" value="" style="endArrow=none;html=1;rounded=0;entryX=0.5;entryY=1;entryDx=0;entryDy=0;exitX=0.1;exitY=0;exitDx=0;exitDy=0;exitPerimeter=0;" edge="1" parent="1" source="vtns92eZaQUpisnjDbsl-1" target="vtns92eZaQUpisnjDbsl-34">
          <mxGeometry width="50" height="50" relative="1" as="geometry">
            <mxPoint x="60" y="230" as="sourcePoint" />
            <mxPoint x="110" y="180" as="targetPoint" />
          </mxGeometry>
        </mxCell>
        <mxCell id="vtns92eZaQUpisnjDbsl-57" value="" style="endArrow=none;html=1;rounded=0;entryX=0.632;entryY=-0.057;entryDx=0;entryDy=0;exitX=0.5;exitY=1;exitDx=0;exitDy=0;entryPerimeter=0;" edge="1" parent="1" source="vtns92eZaQUpisnjDbsl-33" target="vtns92eZaQUpisnjDbsl-1">
          <mxGeometry width="50" height="50" relative="1" as="geometry">
            <mxPoint x="140" y="200" as="sourcePoint" />
            <mxPoint x="190" y="150" as="targetPoint" />
          </mxGeometry>
        </mxCell>
        <mxCell id="vtns92eZaQUpisnjDbsl-58" value="" style="endArrow=none;html=1;rounded=0;entryX=0.5;entryY=1;entryDx=0;entryDy=0;exitX=0.5;exitY=0;exitDx=0;exitDy=0;" edge="1" parent="1" source="vtns92eZaQUpisnjDbsl-9" target="vtns92eZaQUpisnjDbsl-37">
          <mxGeometry width="50" height="50" relative="1" as="geometry">
            <mxPoint x="596.8" y="166.91000000000008" as="sourcePoint" />
            <mxPoint x="594.5" y="110" as="targetPoint" />
          </mxGeometry>
        </mxCell>
        <mxCell id="vtns92eZaQUpisnjDbsl-59" value="" style="endArrow=none;html=1;rounded=0;entryX=0.5;entryY=1;entryDx=0;entryDy=0;" edge="1" parent="1" target="vtns92eZaQUpisnjDbsl-36">
          <mxGeometry width="50" height="50" relative="1" as="geometry">
            <mxPoint x="620" y="170" as="sourcePoint" />
            <mxPoint x="480" y="320" as="targetPoint" />
          </mxGeometry>
        </mxCell>
        <mxCell id="vtns92eZaQUpisnjDbsl-60" value="" style="endArrow=none;html=1;rounded=0;entryX=0.5;entryY=1;entryDx=0;entryDy=0;" edge="1" parent="1" source="vtns92eZaQUpisnjDbsl-9" target="vtns92eZaQUpisnjDbsl-35">
          <mxGeometry width="50" height="50" relative="1" as="geometry">
            <mxPoint x="380" y="370" as="sourcePoint" />
            <mxPoint x="430" y="320" as="targetPoint" />
          </mxGeometry>
        </mxCell>
        <mxCell id="vtns92eZaQUpisnjDbsl-61" value="" style="endArrow=none;html=1;rounded=0;entryX=0.5;entryY=1;entryDx=0;entryDy=0;" edge="1" parent="1" target="vtns92eZaQUpisnjDbsl-51">
          <mxGeometry width="50" height="50" relative="1" as="geometry">
            <mxPoint x="383" y="310" as="sourcePoint" />
            <mxPoint x="430" y="380" as="targetPoint" />
          </mxGeometry>
        </mxCell>
        <mxCell id="vtns92eZaQUpisnjDbsl-62" value="" style="endArrow=none;html=1;rounded=0;entryX=0.5;entryY=1;entryDx=0;entryDy=0;exitX=0.822;exitY=0.057;exitDx=0;exitDy=0;exitPerimeter=0;" edge="1" parent="1" source="vtns92eZaQUpisnjDbsl-6" target="vtns92eZaQUpisnjDbsl-50">
          <mxGeometry width="50" height="50" relative="1" as="geometry">
            <mxPoint x="380" y="430" as="sourcePoint" />
            <mxPoint x="430" y="380" as="targetPoint" />
          </mxGeometry>
        </mxCell>
        <mxCell id="vtns92eZaQUpisnjDbsl-63" value="" style="endArrow=none;html=1;rounded=0;entryX=0.433;entryY=0.977;entryDx=0;entryDy=0;entryPerimeter=0;" edge="1" parent="1" target="vtns92eZaQUpisnjDbsl-52">
          <mxGeometry width="50" height="50" relative="1" as="geometry">
            <mxPoint x="350" y="310" as="sourcePoint" />
            <mxPoint x="430" y="380" as="targetPoint" />
          </mxGeometry>
        </mxCell>
        <mxCell id="vtns92eZaQUpisnjDbsl-64" value="" style="endArrow=none;html=1;rounded=0;entryX=0.5;entryY=1;entryDx=0;entryDy=0;exitX=0;exitY=0.5;exitDx=0;exitDy=0;" edge="1" parent="1" source="vtns92eZaQUpisnjDbsl-6" target="vtns92eZaQUpisnjDbsl-48">
          <mxGeometry width="50" height="50" relative="1" as="geometry">
            <mxPoint x="380" y="430" as="sourcePoint" />
            <mxPoint x="430" y="380" as="targetPoint" />
          </mxGeometry>
        </mxCell>
        <mxCell id="vtns92eZaQUpisnjDbsl-65" value="" style="endArrow=none;html=1;rounded=0;entryX=0.5;entryY=1;entryDx=0;entryDy=0;exitX=1;exitY=0.25;exitDx=0;exitDy=0;" edge="1" parent="1" source="vtns92eZaQUpisnjDbsl-6" target="vtns92eZaQUpisnjDbsl-49">
          <mxGeometry width="50" height="50" relative="1" as="geometry">
            <mxPoint x="380" y="430" as="sourcePoint" />
            <mxPoint x="430" y="380" as="targetPoint" />
          </mxGeometry>
        </mxCell>
        <mxCell id="vtns92eZaQUpisnjDbsl-66" value="" style="endArrow=none;html=1;rounded=0;entryX=0.5;entryY=1;entryDx=0;entryDy=0;exitX=0.6;exitY=0;exitDx=0;exitDy=0;exitPerimeter=0;" edge="1" parent="1" source="vtns92eZaQUpisnjDbsl-8" target="vtns92eZaQUpisnjDbsl-39">
          <mxGeometry width="50" height="50" relative="1" as="geometry">
            <mxPoint x="380" y="430" as="sourcePoint" />
            <mxPoint x="430" y="380" as="targetPoint" />
          </mxGeometry>
        </mxCell>
        <mxCell id="vtns92eZaQUpisnjDbsl-67" value="" style="endArrow=none;html=1;rounded=0;entryX=0.5;entryY=1;entryDx=0;entryDy=0;exitX=1;exitY=0.25;exitDx=0;exitDy=0;" edge="1" parent="1" source="vtns92eZaQUpisnjDbsl-8" target="vtns92eZaQUpisnjDbsl-38">
          <mxGeometry width="50" height="50" relative="1" as="geometry">
            <mxPoint x="190" y="490" as="sourcePoint" />
            <mxPoint x="240" y="440" as="targetPoint" />
          </mxGeometry>
        </mxCell>
        <mxCell id="vtns92eZaQUpisnjDbsl-68" value="" style="endArrow=none;html=1;rounded=0;entryX=0.5;entryY=1;entryDx=0;entryDy=0;" edge="1" parent="1" source="vtns92eZaQUpisnjDbsl-8" target="vtns92eZaQUpisnjDbsl-42">
          <mxGeometry width="50" height="50" relative="1" as="geometry">
            <mxPoint x="40" y="540" as="sourcePoint" />
            <mxPoint x="90" y="490" as="targetPoint" />
          </mxGeometry>
        </mxCell>
        <mxCell id="vtns92eZaQUpisnjDbsl-69" value="" style="endArrow=none;html=1;rounded=0;entryX=1;entryY=1;entryDx=0;entryDy=0;exitX=0.108;exitY=-0.034;exitDx=0;exitDy=0;exitPerimeter=0;" edge="1" parent="1" source="vtns92eZaQUpisnjDbsl-8" target="vtns92eZaQUpisnjDbsl-41">
          <mxGeometry width="50" height="50" relative="1" as="geometry">
            <mxPoint x="40" y="510" as="sourcePoint" />
            <mxPoint x="90" y="460" as="targetPoint" />
          </mxGeometry>
        </mxCell>
        <mxCell id="vtns92eZaQUpisnjDbsl-70" value="" style="endArrow=none;html=1;rounded=0;entryX=1;entryY=1;entryDx=0;entryDy=0;exitX=0;exitY=0.75;exitDx=0;exitDy=0;" edge="1" parent="1" source="vtns92eZaQUpisnjDbsl-8" target="vtns92eZaQUpisnjDbsl-40">
          <mxGeometry width="50" height="50" relative="1" as="geometry">
            <mxPoint x="40" y="540" as="sourcePoint" />
            <mxPoint x="90" y="490" as="targetPoint" />
          </mxGeometry>
        </mxCell>
        <mxCell id="vtns92eZaQUpisnjDbsl-71" value="" style="endArrow=none;html=1;rounded=0;exitX=0.623;exitY=0.011;exitDx=0;exitDy=0;exitPerimeter=0;" edge="1" parent="1" source="vtns92eZaQUpisnjDbsl-7">
          <mxGeometry width="50" height="50" relative="1" as="geometry">
            <mxPoint x="590" y="440" as="sourcePoint" />
            <mxPoint x="640" y="390" as="targetPoint" />
          </mxGeometry>
        </mxCell>
        <mxCell id="vtns92eZaQUpisnjDbsl-74" value="" style="endArrow=none;html=1;rounded=0;exitX=0.83;exitY=0.034;exitDx=0;exitDy=0;exitPerimeter=0;entryX=0.232;entryY=0.954;entryDx=0;entryDy=0;entryPerimeter=0;" edge="1" parent="1" source="vtns92eZaQUpisnjDbsl-7" target="vtns92eZaQUpisnjDbsl-44">
          <mxGeometry width="50" height="50" relative="1" as="geometry">
            <mxPoint x="620" y="470" as="sourcePoint" />
            <mxPoint x="670" y="420" as="targetPoint" />
          </mxGeometry>
        </mxCell>
        <mxCell id="vtns92eZaQUpisnjDbsl-75" value="" style="endArrow=none;html=1;rounded=0;exitX=1;exitY=0.75;exitDx=0;exitDy=0;entryX=0.071;entryY=0.816;entryDx=0;entryDy=0;entryPerimeter=0;" edge="1" parent="1" source="vtns92eZaQUpisnjDbsl-7" target="vtns92eZaQUpisnjDbsl-43">
          <mxGeometry width="50" height="50" relative="1" as="geometry">
            <mxPoint x="630" y="510" as="sourcePoint" />
            <mxPoint x="680" y="460" as="targetPoint" />
          </mxGeometry>
        </mxCell>
        <mxCell id="vtns92eZaQUpisnjDbsl-76" value="" style="endArrow=none;html=1;rounded=0;exitX=0.582;exitY=0.989;exitDx=0;exitDy=0;entryX=0.348;entryY=-0.08;entryDx=0;entryDy=0;entryPerimeter=0;exitPerimeter=0;" edge="1" parent="1" source="vtns92eZaQUpisnjDbsl-47" target="vtns92eZaQUpisnjDbsl-7">
          <mxGeometry width="50" height="50" relative="1" as="geometry">
            <mxPoint x="490" y="330" as="sourcePoint" />
            <mxPoint x="540" y="280" as="targetPoint" />
          </mxGeometry>
        </mxCell>
        <mxCell id="vtns92eZaQUpisnjDbsl-77" value="" style="endArrow=none;html=1;rounded=0;exitX=0.5;exitY=1;exitDx=0;exitDy=0;entryX=0.086;entryY=0.011;entryDx=0;entryDy=0;entryPerimeter=0;" edge="1" parent="1" source="vtns92eZaQUpisnjDbsl-46" target="vtns92eZaQUpisnjDbsl-7">
          <mxGeometry width="50" height="50" relative="1" as="geometry">
            <mxPoint x="490" y="330" as="sourcePoint" />
            <mxPoint x="540" y="280" as="targetPoint" />
          </mxGeometry>
        </mxCell>
        <mxCell id="vtns92eZaQUpisnjDbsl-78" value="Penumpang" style="swimlane;fontStyle=0;childLayout=stackLayout;horizontal=1;startSize=30;horizontalStack=0;resizeParent=1;resizeParentMax=0;resizeLast=0;collapsible=1;marginBottom=0;whiteSpace=wrap;html=1;fillColor=#FF88AB;strokeColor=#b85450;" vertex="1" parent="1">
          <mxGeometry x="50" y="600" width="140" height="120" as="geometry" />
        </mxCell>
        <mxCell id="vtns92eZaQUpisnjDbsl-79" value="id_penumpang" style="text;strokeColor=#A50040;fillColor=#CC99FF;align=left;verticalAlign=middle;spacingLeft=4;spacingRight=4;overflow=hidden;points=[[0,0.5],[1,0.5]];portConstraint=eastwest;rotatable=0;whiteSpace=wrap;html=1;fontColor=#ffffff;" vertex="1" parent="vtns92eZaQUpisnjDbsl-78">
          <mxGeometry y="30" width="140" height="30" as="geometry" />
        </mxCell>
        <mxCell id="vtns92eZaQUpisnjDbsl-80" value="nama" style="text;strokeColor=#A50040;fillColor=#CC99FF;align=left;verticalAlign=middle;spacingLeft=4;spacingRight=4;overflow=hidden;points=[[0,0.5],[1,0.5]];portConstraint=eastwest;rotatable=0;whiteSpace=wrap;html=1;fontColor=#ffffff;" vertex="1" parent="vtns92eZaQUpisnjDbsl-78">
          <mxGeometry y="60" width="140" height="30" as="geometry" />
        </mxCell>
        <mxCell id="vtns92eZaQUpisnjDbsl-81" value="no_hp" style="text;strokeColor=#A50040;fillColor=#CC99FF;align=left;verticalAlign=middle;spacingLeft=4;spacingRight=4;overflow=hidden;points=[[0,0.5],[1,0.5]];portConstraint=eastwest;rotatable=0;whiteSpace=wrap;html=1;" vertex="1" parent="vtns92eZaQUpisnjDbsl-78">
          <mxGeometry y="90" width="140" height="30" as="geometry" />
        </mxCell>
        <mxCell id="vtns92eZaQUpisnjDbsl-86" value="kereta" style="swimlane;fontStyle=0;childLayout=stackLayout;horizontal=1;startSize=30;horizontalStack=0;resizeParent=1;resizeParentMax=0;resizeLast=0;collapsible=1;marginBottom=0;whiteSpace=wrap;html=1;fillColor=#FF88AB;strokeColor=#b85450;" vertex="1" parent="1">
          <mxGeometry x="70" y="780" width="140" height="120" as="geometry" />
        </mxCell>
        <mxCell id="vtns92eZaQUpisnjDbsl-87" value="&amp;nbsp;id_kereta" style="text;strokeColor=#A50040;fillColor=#CC99FF;align=left;verticalAlign=middle;spacingLeft=4;spacingRight=4;overflow=hidden;points=[[0,0.5],[1,0.5]];portConstraint=eastwest;rotatable=0;whiteSpace=wrap;html=1;fontColor=#ffffff;" vertex="1" parent="vtns92eZaQUpisnjDbsl-86">
          <mxGeometry y="30" width="140" height="30" as="geometry" />
        </mxCell>
        <mxCell id="vtns92eZaQUpisnjDbsl-88" value="nama_kereta" style="text;strokeColor=#A50040;fillColor=#CC99FF;align=left;verticalAlign=middle;spacingLeft=4;spacingRight=4;overflow=hidden;points=[[0,0.5],[1,0.5]];portConstraint=eastwest;rotatable=0;whiteSpace=wrap;html=1;fontColor=#ffffff;" vertex="1" parent="vtns92eZaQUpisnjDbsl-86">
          <mxGeometry y="60" width="140" height="30" as="geometry" />
        </mxCell>
        <mxCell id="vtns92eZaQUpisnjDbsl-89" value="jenis_kereta" style="text;strokeColor=#A50040;fillColor=#CC99FF;align=left;verticalAlign=middle;spacingLeft=4;spacingRight=4;overflow=hidden;points=[[0,0.5],[1,0.5]];portConstraint=eastwest;rotatable=0;whiteSpace=wrap;html=1;" vertex="1" parent="vtns92eZaQUpisnjDbsl-86">
          <mxGeometry y="90" width="140" height="30" as="geometry" />
        </mxCell>
        <mxCell id="vtns92eZaQUpisnjDbsl-90" value="Tiket" style="swimlane;fontStyle=0;childLayout=stackLayout;horizontal=1;startSize=30;horizontalStack=0;resizeParent=1;resizeParentMax=0;resizeLast=0;collapsible=1;marginBottom=0;whiteSpace=wrap;html=1;fillColor=#FF88AB;strokeColor=#b85450;" vertex="1" parent="1">
          <mxGeometry x="320" y="580" width="140" height="150" as="geometry" />
        </mxCell>
        <mxCell id="vtns92eZaQUpisnjDbsl-91" value="id_tiket" style="text;strokeColor=#A50040;fillColor=#CC99FF;align=left;verticalAlign=middle;spacingLeft=4;spacingRight=4;overflow=hidden;points=[[0,0.5],[1,0.5]];portConstraint=eastwest;rotatable=0;whiteSpace=wrap;html=1;fontColor=#ffffff;" vertex="1" parent="vtns92eZaQUpisnjDbsl-90">
          <mxGeometry y="30" width="140" height="30" as="geometry" />
        </mxCell>
        <mxCell id="vtns92eZaQUpisnjDbsl-95" value="id_penumpang" style="text;strokeColor=#A50040;fillColor=#CC99FF;align=left;verticalAlign=middle;spacingLeft=4;spacingRight=4;overflow=hidden;points=[[0,0.5],[1,0.5]];portConstraint=eastwest;rotatable=0;whiteSpace=wrap;html=1;fontColor=#ffffff;" vertex="1" parent="vtns92eZaQUpisnjDbsl-90">
          <mxGeometry y="60" width="140" height="30" as="geometry" />
        </mxCell>
        <mxCell id="vtns92eZaQUpisnjDbsl-92" value="id_jadwal" style="text;strokeColor=#A50040;fillColor=#CC99FF;align=left;verticalAlign=middle;spacingLeft=4;spacingRight=4;overflow=hidden;points=[[0,0.5],[1,0.5]];portConstraint=eastwest;rotatable=0;whiteSpace=wrap;html=1;fontColor=#ffffff;" vertex="1" parent="vtns92eZaQUpisnjDbsl-90">
          <mxGeometry y="90" width="140" height="30" as="geometry" />
        </mxCell>
        <mxCell id="vtns92eZaQUpisnjDbsl-93" value="no_kursi" style="text;strokeColor=#A50040;fillColor=#CC99FF;align=left;verticalAlign=middle;spacingLeft=4;spacingRight=4;overflow=hidden;points=[[0,0.5],[1,0.5]];portConstraint=eastwest;rotatable=0;whiteSpace=wrap;html=1;" vertex="1" parent="vtns92eZaQUpisnjDbsl-90">
          <mxGeometry y="120" width="140" height="30" as="geometry" />
        </mxCell>
        <mxCell id="vtns92eZaQUpisnjDbsl-104" value="harga" style="text;strokeColor=#A50040;fillColor=#CC99FF;align=left;verticalAlign=middle;spacingLeft=4;spacingRight=4;overflow=hidden;points=[[0,0.5],[1,0.5]];portConstraint=eastwest;rotatable=0;whiteSpace=wrap;html=1;" vertex="1" parent="1">
          <mxGeometry x="320" y="730" width="140" height="30" as="geometry" />
        </mxCell>
        <mxCell id="vtns92eZaQUpisnjDbsl-110" value="Jadwal" style="swimlane;fontStyle=0;childLayout=stackLayout;horizontal=1;startSize=30;horizontalStack=0;resizeParent=1;resizeParentMax=0;resizeLast=0;collapsible=1;marginBottom=0;whiteSpace=wrap;html=1;fillColor=#FF88AB;strokeColor=#b85450;" vertex="1" parent="1">
          <mxGeometry x="500" y="850" width="140" height="180" as="geometry" />
        </mxCell>
        <mxCell id="vtns92eZaQUpisnjDbsl-116" value="Pembayaran" style="swimlane;fontStyle=0;childLayout=stackLayout;horizontal=1;startSize=30;horizontalStack=0;resizeParent=1;resizeParentMax=0;resizeLast=0;collapsible=1;marginBottom=0;whiteSpace=wrap;html=1;fillColor=#FF88AB;strokeColor=#b85450;" vertex="1" parent="1">
          <mxGeometry x="600" y="630" width="140" height="150" as="geometry" />
        </mxCell>
        <mxCell id="vtns92eZaQUpisnjDbsl-117" value="id_pembayaran" style="text;strokeColor=#A50040;fillColor=#CC99FF;align=left;verticalAlign=middle;spacingLeft=4;spacingRight=4;overflow=hidden;points=[[0,0.5],[1,0.5]];portConstraint=eastwest;rotatable=0;whiteSpace=wrap;html=1;fontColor=#ffffff;" vertex="1" parent="vtns92eZaQUpisnjDbsl-116">
          <mxGeometry y="30" width="140" height="30" as="geometry" />
        </mxCell>
        <mxCell id="vtns92eZaQUpisnjDbsl-118" value="id_tiket" style="text;strokeColor=#A50040;fillColor=#CC99FF;align=left;verticalAlign=middle;spacingLeft=4;spacingRight=4;overflow=hidden;points=[[0,0.5],[1,0.5]];portConstraint=eastwest;rotatable=0;whiteSpace=wrap;html=1;fontColor=#ffffff;" vertex="1" parent="vtns92eZaQUpisnjDbsl-116">
          <mxGeometry y="60" width="140" height="30" as="geometry" />
        </mxCell>
        <mxCell id="vtns92eZaQUpisnjDbsl-119" value="metode_pem" style="text;strokeColor=#A50040;fillColor=#CC99FF;align=left;verticalAlign=middle;spacingLeft=4;spacingRight=4;overflow=hidden;points=[[0,0.5],[1,0.5]];portConstraint=eastwest;rotatable=0;whiteSpace=wrap;html=1;fontColor=#ffffff;" vertex="1" parent="vtns92eZaQUpisnjDbsl-116">
          <mxGeometry y="90" width="140" height="30" as="geometry" />
        </mxCell>
        <mxCell id="vtns92eZaQUpisnjDbsl-120" value="status_pem" style="text;strokeColor=#A50040;fillColor=#CC99FF;align=left;verticalAlign=middle;spacingLeft=4;spacingRight=4;overflow=hidden;points=[[0,0.5],[1,0.5]];portConstraint=eastwest;rotatable=0;whiteSpace=wrap;html=1;" vertex="1" parent="vtns92eZaQUpisnjDbsl-116">
          <mxGeometry y="120" width="140" height="30" as="geometry" />
        </mxCell>
        <mxCell id="vtns92eZaQUpisnjDbsl-121" value="tgl_pembayaran" style="text;strokeColor=#A50040;fillColor=#CC99FF;align=left;verticalAlign=middle;spacingLeft=4;spacingRight=4;overflow=hidden;points=[[0,0.5],[1,0.5]];portConstraint=eastwest;rotatable=0;whiteSpace=wrap;html=1;" vertex="1" parent="1">
          <mxGeometry x="600" y="780" width="140" height="30" as="geometry" />
        </mxCell>
        <mxCell id="vtns92eZaQUpisnjDbsl-111" value="id_jadwal" style="text;strokeColor=#A50040;fillColor=#CC99FF;align=left;verticalAlign=middle;spacingLeft=4;spacingRight=4;overflow=hidden;points=[[0,0.5],[1,0.5]];portConstraint=eastwest;rotatable=0;whiteSpace=wrap;html=1;fontColor=#ffffff;" vertex="1" parent="1">
          <mxGeometry x="500" y="880" width="140" height="30" as="geometry" />
        </mxCell>
        <mxCell id="vtns92eZaQUpisnjDbsl-112" value="id_kereta" style="text;strokeColor=#A50040;fillColor=#CC99FF;align=left;verticalAlign=middle;spacingLeft=4;spacingRight=4;overflow=hidden;points=[[0,0.5],[1,0.5]];portConstraint=eastwest;rotatable=0;whiteSpace=wrap;html=1;fontColor=#ffffff;" vertex="1" parent="1">
          <mxGeometry x="500" y="910" width="140" height="30" as="geometry" />
        </mxCell>
        <mxCell id="vtns92eZaQUpisnjDbsl-113" value="metode_pem" style="text;strokeColor=#A50040;fillColor=#CC99FF;align=left;verticalAlign=middle;spacingLeft=4;spacingRight=4;overflow=hidden;points=[[0,0.5],[1,0.5]];portConstraint=eastwest;rotatable=0;whiteSpace=wrap;html=1;fontColor=#ffffff;" vertex="1" parent="1">
          <mxGeometry x="500" y="940" width="140" height="30" as="geometry" />
        </mxCell>
        <mxCell id="vtns92eZaQUpisnjDbsl-114" value="status_pem" style="text;strokeColor=#A50040;fillColor=#CC99FF;align=left;verticalAlign=middle;spacingLeft=4;spacingRight=4;overflow=hidden;points=[[0,0.5],[1,0.5]];portConstraint=eastwest;rotatable=0;whiteSpace=wrap;html=1;" vertex="1" parent="1">
          <mxGeometry x="500" y="970" width="140" height="30" as="geometry" />
        </mxCell>
        <mxCell id="vtns92eZaQUpisnjDbsl-115" value="tgl_pembayaran" style="text;strokeColor=#A50040;fillColor=#CC99FF;align=left;verticalAlign=middle;spacingLeft=4;spacingRight=4;overflow=hidden;points=[[0,0.5],[1,0.5]];portConstraint=eastwest;rotatable=0;whiteSpace=wrap;html=1;" vertex="1" parent="1">
          <mxGeometry x="500" y="1000" width="140" height="30" as="geometry" />
        </mxCell>
      </root>
    </mxGraphModel>
  </diagram>
</mxfile>
